<?xml version="1.0" standalone="no"?>
<!DOCTYPE svg PUBLIC "-//W3C//DTD SVG 20010904//EN"
 "http://www.w3.org/TR/2001/REC-SVG-20010904/DTD/svg10.dtd">
<svg version="1.0" xmlns="http://www.w3.org/2000/svg"
 width="852.000000pt" height="852.000000pt" viewBox="0 0 852.000000 852.000000"
 preserveAspectRatio="xMidYMid meet">
<metadata>
Created by potrace 1.14, written by Peter Selinger 2001-2017
</metadata>
<g transform="translate(0.000000,852.000000) scale(0.100000,-0.100000)"
fill="#000000" stroke="none">
<path d="M4377 7487 c-64 -16 -137 -105 -137 -167 0 -11 -4 -20 -10 -20 -18 0
-40 -59 -40 -107 0 -40 -6 -54 -32 -83 -52 -58 -78 -126 -73 -189 5 -58 43
-176 82 -255 24 -48 25 -49 9 -140 -8 -50 -18 -111 -21 -136 -6 -41 -59 -337
-69 -385 -2 -11 -14 -67 -25 -125 -69 -347 -200 -790 -233 -790 -5 0 -28 13
-51 29 -23 15 -73 40 -112 55 -38 15 -91 38 -116 51 -25 14 -69 30 -98 36 -47
10 -132 63 -196 122 -97 90 -262 201 -405 270 -87 42 -330 129 -394 141 -14 2
-29 7 -33 9 -5 3 -24 8 -43 11 -19 3 -82 14 -140 25 -58 10 -136 22 -175 26
-38 4 -78 9 -89 11 -18 3 -132 12 -261 19 -93 5 -417 5 -530 0 -143 -7 -306
-16 -355 -20 -175 -15 -273 -25 -282 -31 -11 -7 11 -60 34 -81 11 -10 38 -25
60 -34 l41 -16 -79 -13 c-44 -7 -82 -18 -86 -24 -11 -15 -10 -64 1 -70 25 -16
224 -38 349 -40 l142 -1 -52 -24 c-29 -13 -66 -30 -83 -37 -16 -7 -51 -21 -77
-32 -25 -11 -50 -17 -55 -14 -4 4 5 -7 20 -24 31 -35 100 -68 166 -81 l43 -8
-46 -34 c-25 -19 -46 -37 -46 -41 0 -19 118 -58 188 -63 35 -2 39 -4 30 -20
-17 -33 -5 -71 27 -86 30 -15 187 -18 229 -5 18 6 18 5 2 -17 -17 -24 -21 -66
-8 -85 22 -34 123 -58 268 -63 19 -1 32 -6 31 -13 -2 -49 23 -68 133 -103 l55
-17 -2 -59 c-1 -44 6 -77 24 -122 14 -34 31 -75 37 -92 7 -16 22 -50 33 -75
28 -62 73 -197 79 -240 3 -19 8 -38 10 -42 3 -4 7 -58 10 -120 3 -62 10 -126
15 -142 5 -16 8 -31 6 -33 -3 -3 -132 -38 -217 -60 -14 -4 -54 -7 -90 -7 l-65
-1 -5 65 c-3 38 -12 77 -23 93 -11 17 -17 46 -17 79 0 76 -47 151 -96 150 -51
0 -55 -14 -48 -146 11 -200 -15 -275 -137 -400 -44 -44 -82 -91 -86 -104 -8
-33 12 -72 37 -72 24 0 24 1 3 -41 -24 -46 -23 -107 1 -125 11 -7 23 -11 27
-8 23 14 27 -10 8 -46 -27 -51 -22 -100 10 -117 37 -18 64 3 149 115 106 141
115 150 185 181 126 56 268 70 465 46 64 -8 135 -15 157 -15 29 0 70 -15 146
-54 137 -72 330 -136 479 -160 19 -3 46 -9 60 -12 41 -10 411 -13 460 -4 25 5
63 11 85 14 23 4 51 9 63 11 12 3 32 7 43 10 161 35 372 134 499 234 61 48
160 149 200 205 18 25 42 47 52 47 10 1 21 2 26 3 42 11 101 19 119 17 12 -1
41 3 65 10 24 7 45 13 48 14 3 1 28 5 56 9 68 10 109 36 142 91 14 24 33 47
40 50 29 11 71 -149 67 -255 -5 -110 -48 -193 -122 -237 -38 -22 -174 -66
-243 -78 -153 -26 -271 -47 -300 -51 -19 -2 -53 -7 -75 -10 -62 -9 -296 -46
-370 -59 -737 -131 -1102 -348 -1208 -720 -27 -94 -28 -349 -2 -499 2 -11 9
-50 15 -86 10 -65 15 -93 25 -140 3 -14 7 -35 10 -47 7 -42 57 -216 72 -257
123 -328 235 -501 428 -660 137 -114 339 -168 491 -130 70 17 189 44 224 50
14 3 57 11 95 19 39 8 86 17 105 20 19 3 49 8 65 12 17 3 37 7 45 8 19 3 33 6
320 61 129 25 278 54 330 65 52 11 115 24 140 29 25 5 56 12 70 15 14 3 36 8
50 11 14 3 84 19 155 35 72 17 137 32 145 34 125 28 481 126 645 179 532 170
868 357 1001 556 79 119 98 225 99 555 0 116 -4 239 -8 275 -37 302 -104 543
-214 770 -128 265 -279 421 -468 485 -196 66 -488 47 -789 -52 -105 -34 -110
-35 -123 -17 -31 43 -124 144 -203 221 -46 46 -78 83 -70 84 52 2 90 32 90 69
0 18 19 30 48 30 33 0 82 44 94 85 14 51 30 64 73 58 43 -6 83 20 101 64 8 18
18 33 23 33 5 0 44 -14 86 -31 96 -38 142 -44 204 -25 27 8 51 12 54 10 3 -3
33 -5 67 -5 43 -1 67 4 79 15 13 12 34 16 77 14 87 -3 148 9 178 37 14 13 26
30 26 38 0 8 10 14 23 14 111 -3 256 34 272 71 9 21 16 22 110 23 134 0 174 8
197 40 15 20 17 30 9 51 -9 24 -8 26 12 23 190 -34 260 -21 252 43 -3 27 -3
27 63 29 37 1 92 10 122 21 l54 19 -43 31 c-24 18 -42 32 -40 33 2 0 23 3 45
5 50 5 108 24 152 51 l33 20 -68 28 c-37 16 -72 32 -77 37 -6 4 -17 8 -25 8
-9 0 -25 8 -36 16 -18 14 -13 15 60 8 80 -8 303 -7 340 0 11 3 25 5 30 5 6 1
10 18 10 39 l0 37 -65 17 c-63 15 -64 16 -32 23 61 14 111 103 60 106 -38 2
-111 13 -162 24 -12 2 -41 7 -66 10 -25 3 -54 7 -66 9 -12 2 -45 7 -75 11 -30
3 -65 8 -79 10 -14 2 -50 7 -80 10 -30 3 -66 8 -80 10 -14 2 -59 7 -100 10
-41 4 -87 8 -102 10 -215 27 -906 27 -1045 1 -10 -2 -40 -7 -68 -10 -86 -12
-119 -17 -165 -28 -25 -5 -55 -12 -66 -14 -143 -27 -354 -111 -537 -212 -155
-86 -160 -88 -227 -97 -25 -3 -63 -11 -85 -17 -22 -6 -53 -12 -69 -14 -61 -6
-134 -28 -215 -65 -46 -22 -85 -38 -86 -37 -7 8 -27 418 -28 583 -1 116 8 289
18 350 29 174 29 175 44 255 5 30 13 73 16 95 3 22 7 47 10 55 2 8 6 40 10 71
3 31 7 66 10 77 2 11 7 41 11 67 5 39 15 54 57 93 49 46 117 140 117 162 0 6
11 26 25 44 58 76 67 191 19 246 -28 33 -70 128 -64 146 9 26 -8 95 -29 119
-10 11 -26 41 -35 68 -19 52 -65 103 -105 118 -36 14 -228 18 -274 6z m-2458
-3831 c-12 -12 -189 -34 -178 -22 3 3 30 10 60 15 60 10 125 13 118 7z"/>
</g>
</svg>
