<svg aria-hidden="true" style="position: absolute; width: 0; height: 0; overflow: hidden;" version="1.1" xmlns="http://www.w3.org/2000/svg" xmlns:xlink="http://www.w3.org/1999/xlink">
<defs>
<symbol id="icon-chart" viewBox="0 0 32 32">
<path d="M23.8 9.037c0-0.759 0.001-1.305 0.038-1.732 0.037-0.436 0.103-0.596 0.134-0.648 0.008-0.013 0.011-0.016 0.015-0.019l0.001-0c0.009-0.006 0.045-0.031 0.138-0.060 0.208-0.064 0.569-0.112 1.207-0.112s1 0.048 1.207 0.112c0.093 0.029 0.129 0.053 0.138 0.060l0.001 0c0.004 0.003 0.007 0.005 0.015 0.019 0.031 0.052 0.097 0.212 0.134 0.648 0.037 0.427 0.037 0.973 0.037 1.732v13.926c0 0.896-0.051 1.503-0.135 1.915-0.084 0.414-0.182 0.531-0.199 0.548-0.006 0.006-0.011 0.011-0.029 0.020-0.023 0.011-0.072 0.029-0.169 0.046-0.221 0.038-0.511 0.041-1.002 0.041-0.499 0-0.793-0.003-1.015-0.042-0.097-0.017-0.146-0.035-0.168-0.045-0.016-0.008-0.020-0.012-0.025-0.017-0.015-0.016-0.112-0.131-0.195-0.547-0.082-0.413-0.132-1.022-0.132-1.92v-13.926zM25.333 4.2c-1.288 0-2.612 0.136-3.305 1.291-0.302 0.504-0.403 1.084-0.449 1.621-0.046 0.535-0.046 1.177-0.046 1.884v13.968c0 0.954 0.050 1.734 0.175 2.363 0.125 0.625 0.343 1.205 0.761 1.652 0.439 0.47 0.975 0.664 1.466 0.748 0.435 0.074 0.92 0.074 1.344 0.074h0.107c0.418 0 0.9 0 1.333-0.074 0.489-0.084 1.023-0.278 1.463-0.745 0.42-0.445 0.643-1.023 0.77-1.651 0.128-0.63 0.18-1.412 0.18-2.367v-13.968c0-0.706 0-1.349-0.046-1.884-0.046-0.536-0.147-1.117-0.449-1.621-0.693-1.155-2.017-1.291-3.305-1.291zM14.505 12.667c-0.033 0.301-0.035 0.651-0.035 1.111v9.778c0 0.011-0 0.022-0 0.033-0.033 1.146 0.175 1.533 0.299 1.666 0.107 0.115 0.376 0.279 1.23 0.279 0.834 0 1.112-0.162 1.226-0.283 0.127-0.134 0.34-0.523 0.303-1.658-0-0.012-0.001-0.024-0.001-0.036v-9.778c0-0.461-0.001-0.811-0.035-1.111-0.033-0.296-0.089-0.448-0.137-0.529l-0.002-0.003c-0.031-0.053-0.198-0.335-1.356-0.335s-1.324 0.282-1.356 0.335l-0.002 0.003c-0.049 0.081-0.104 0.232-0.137 0.529zM12.698 10.973c0.639-1.066 1.819-1.44 3.302-1.44s2.663 0.374 3.302 1.44c0.284 0.475 0.395 0.99 0.445 1.444 0.049 0.438 0.049 0.908 0.049 1.328v9.793c0.039 1.301-0.16 2.461-0.921 3.267-0.777 0.823-1.869 0.995-2.875 0.995-1.015 0-2.112-0.169-2.887-0.999-0.754-0.808-0.944-1.97-0.909-3.261v-9.795c-0-0.42-0-0.89 0.049-1.328 0.050-0.454 0.161-0.969 0.445-1.444zM5.169 19.359c-0.035 0.352-0.036 0.776-0.036 1.344v3.689c0 0.641 0.155 0.816 0.23 0.879 0.122 0.103 0.453 0.261 1.303 0.261 0.832 0 1.167-0.156 1.296-0.264 0.081-0.068 0.237-0.247 0.237-0.877v-3.669l-0.009-0.27c-0.015-0.439-0.026-0.782-0.059-1.085-0.039-0.363-0.099-0.533-0.146-0.615l-0.001-0.002c-0.012-0.027-0.127-0.285-1.319-0.285-1.196 0-1.336 0.261-1.355 0.297l-0.001 0.003c-0.046 0.078-0.106 0.242-0.141 0.593zM3.356 17.618c0.654-1.112 1.877-1.418 3.31-1.418 1.436 0 2.648 0.307 3.288 1.431 0.276 0.485 0.379 1.020 0.43 1.495 0.043 0.395 0.057 0.841 0.072 1.281 0.003 0.086 0.006 0.172 0.009 0.257l0 0.013 0 0.027v3.689c0 0.991-0.256 1.949-1.047 2.613-0.744 0.624-1.741 0.795-2.753 0.795-1.021 0-2.024-0.169-2.767-0.798-0.79-0.669-1.033-1.63-1.033-2.61v-3.725c-0-0.522-0-1.056 0.047-1.532 0.048-0.487 0.155-1.029 0.442-1.517z"></path>
</symbol>
<symbol id="icon-plus" viewBox="0 0 32 32">
<path stroke-linejoin="round" stroke-linecap="round" stroke-miterlimit="4" stroke-width="2.6667" d="M16 6.667v18.667M6.667 16h18.667"></path>
</symbol>
<symbol id="icon-x-close" viewBox="0 0 32 32">
<path stroke-linejoin="round" stroke-linecap="round" stroke-miterlimit="4" stroke-width="2.6667" d="M24 8l-16 16"></path>
<path stroke-linejoin="round" stroke-linecap="round" stroke-miterlimit="4" stroke-width="2.6667" d="M8 8l16 16"></path>
</symbol>
<symbol id="icon-done" viewBox="0 0 32 32">
<path d="M14.133 18.4l-2.9-2.9c-0.244-0.244-0.55-0.361-0.916-0.349s-0.673 0.138-0.917 0.383-0.367 0.556-0.367 0.933c0 0.378 0.122 0.689 0.367 0.933l3.8 3.8c0.244 0.244 0.556 0.367 0.933 0.367s0.689-0.122 0.933-0.367l7.567-7.567c0.244-0.244 0.361-0.55 0.351-0.917s-0.14-0.672-0.384-0.916-0.556-0.367-0.933-0.367c-0.378 0-0.689 0.122-0.933 0.367l-6.6 6.6zM16 29.333c-1.844 0-3.578-0.35-5.2-1.051s-3.033-1.649-4.233-2.849-2.15-2.611-2.849-4.233c-0.7-1.622-1.051-3.356-1.051-5.2s0.35-3.578 1.051-5.2c0.7-1.622 1.649-3.033 2.849-4.233s2.611-2.15 4.233-2.851c1.622-0.7 3.356-1.049 5.2-1.049s3.578 0.35 5.2 1.049c1.622 0.7 3.033 1.651 4.233 2.851s2.15 2.611 2.849 4.233c0.7 1.622 1.051 3.356 1.051 5.2s-0.35 3.578-1.051 5.2c-0.7 1.622-1.649 3.033-2.849 4.233s-2.611 2.15-4.233 2.849c-1.622 0.7-3.356 1.051-5.2 1.051zM16 26.667c2.956 0 5.472-1.039 7.551-3.116s3.116-4.595 3.116-7.551c0-2.956-1.039-5.472-3.116-7.551s-4.595-3.116-7.551-3.116c-2.956 0-5.472 1.039-7.549 3.116s-3.117 4.595-3.117 7.551c0 2.956 1.039 5.472 3.117 7.551s4.594 3.116 7.549 3.116z"></path>
</symbol>
<symbol id="icon-error" viewBox="0 0 32 32">
<path d="M14.667 20h2.667v2.667h-2.667v-2.667zM14.667 9.333h2.667v8h-2.667v-8zM15.987 2.667c-7.36 0-13.32 5.973-13.32 13.333s5.96 13.333 13.32 13.333c7.373 0 13.347-5.973 13.347-13.333s-5.973-13.333-13.347-13.333zM16 26.667c-5.893 0-10.667-4.773-10.667-10.667s4.773-10.667 10.667-10.667c5.893 0 10.667 4.773 10.667 10.667s-4.773 10.667-10.667 10.667z"></path>
</symbol>
<symbol id="icon-log-out" viewBox="0 0 32 32">
<path stroke-linejoin="round" stroke-linecap="round" stroke-miterlimit="4" stroke-width="3.2" d="M21.333 22.667l6.667-6.667M28 16l-6.667-6.667M28 16h-16M12 4h-1.6c-2.24 0-3.36 0-4.216 0.436-0.753 0.383-1.365 0.995-1.748 1.748-0.436 0.856-0.436 1.976-0.436 4.216v11.2c0 2.24 0 3.36 0.436 4.216 0.383 0.753 0.995 1.364 1.748 1.748 0.856 0.436 1.976 0.436 4.216 0.436h1.6"></path>
</symbol>
<symbol id="icon-arrow-circle-broken-right" viewBox="0 0 32 32">
<path stroke-linejoin="round" stroke-linecap="round" stroke-miterlimit="4" stroke-width="2.6" d="M4.451 9.333c2.305-3.985 6.614-6.667 11.55-6.667 7.364 0 13.333 5.97 13.333 13.333s-5.97 13.333-13.333 13.333c-4.935 0-9.244-2.681-11.55-6.667"></path>
<path stroke-linejoin="round" stroke-linecap="round" stroke-miterlimit="4" stroke-width="2.6" d="M16 21.333l5.333-5.333-5.333-5.333"></path>
<path stroke-linejoin="round" stroke-linecap="round" stroke-miterlimit="4" stroke-width="2.6" d="M2.667 16h18.667"></path>
</symbol>
<symbol id="icon-pencil" viewBox="0 0 32 32">
<path stroke-linejoin="round" stroke-linecap="round" stroke-miterlimit="4" stroke-width="2.6" d="M3.333 28.667l7.399-2.846c0.473-0.182 0.71-0.273 0.931-0.392 0.197-0.106 0.384-0.227 0.56-0.364 0.198-0.154 0.378-0.333 0.736-0.692l15.040-15.040c1.473-1.473 1.473-3.861 0-5.333s-3.861-1.473-5.333 0l-15.040 15.040c-0.359 0.359-0.538 0.538-0.692 0.736-0.137 0.176-0.259 0.364-0.364 0.561-0.119 0.221-0.21 0.458-0.392 0.931l-2.846 7.399zM3.333 28.667l2.744-7.135c0.196-0.511 0.295-0.766 0.463-0.883 0.147-0.102 0.329-0.141 0.505-0.107 0.201 0.038 0.395 0.232 0.782 0.619l3.012 3.012c0.387 0.387 0.58 0.58 0.619 0.782 0.034 0.176-0.005 0.358-0.107 0.505-0.117 0.168-0.372 0.267-0.883 0.463l-7.135 2.744z"></path>
</symbol>
<symbol id="icon-trash" viewBox="0 0 32 32">
<path stroke-linejoin="round" stroke-linecap="round" stroke-miterlimit="4" stroke-width="2.6" d="M12 4h8"></path>
<path stroke-linejoin="round" stroke-linecap="round" stroke-miterlimit="4" stroke-width="2.6" d="M4 8h24"></path>
<path stroke-linejoin="round" stroke-linecap="round" stroke-miterlimit="4" stroke-width="2.6" d="M6.667 8l0.801 12.018c0.149 2.231 0.223 3.347 0.588 4.243 0.662 1.627 2.004 2.883 3.672 3.435 0.919 0.304 2.037 0.304 4.273 0.304v0c2.236 0 3.354 0 4.273-0.304 1.668-0.552 3.009-1.808 3.671-3.435 0.365-0.896 0.439-2.012 0.588-4.243l0.801-12.018"></path>
</symbol>
<symbol id="icon-icon-plus" viewBox="0 0 32 32">
<path stroke-linejoin="round" stroke-linecap="round" stroke-miterlimit="4" stroke-width="2.6667" d="M16 10.667v10.667M10.667 16h10.667M29.333 16c0 7.364-5.97 13.333-13.333 13.333s-13.333-5.97-13.333-13.333c0-7.364 5.97-13.333 13.333-13.333s13.333 5.97 13.333 13.333z"></path>
</symbol>
<symbol id="icon-sun" viewBox="0 0 32 32">
<path d="M9.324 16c0 3.681 2.995 6.676 6.676 6.676s6.676-2.995 6.676-6.676c0-3.681-2.995-6.676-6.676-6.676s-6.676 2.995-6.676 6.676zM16 11.991c2.211 0 4.009 1.799 4.009 4.009s-1.799 4.009-4.009 4.009c-2.211 0-4.009-1.799-4.009-4.009s1.799-4.009 4.009-4.009zM14.664 25.333h2.667v4h-2.667v-4zM14.664 2.667h2.667v4h-2.667v-4zM2.664 14.667h4v2.667h-4v-2.667zM25.331 14.667h4v2.667h-4v-2.667zM5.625 24.484l2.827-2.829 1.887 1.885-2.827 2.829-1.887-1.885zM21.653 8.459l2.829-2.829 1.885 1.885-2.829 2.829-1.885-1.885zM8.456 10.345l-2.829-2.829 1.887-1.885 2.827 2.829-1.884 1.885zM26.368 24.485l-1.885 1.885-2.829-2.829 1.885-1.885 2.829 2.829z"></path>
</symbol>
<symbol id="icon-moon" viewBox="0 0 32 32">
<path d="M27.656 17.393c-0.904 0.24-1.834 0.361-2.769 0.361-2.847 0-5.52-1.107-7.528-3.115-1.319-1.326-2.267-2.975-2.749-4.782s-0.484-3.709-0.002-5.516c0.060-0.226 0.060-0.464-0.001-0.689s-0.18-0.432-0.345-0.597c-0.165-0.165-0.371-0.284-0.597-0.344s-0.464-0.060-0.69 0c-2.262 0.603-4.327 1.79-5.985 3.443-5.197 5.197-5.197 13.657 0 18.857 1.235 1.242 2.705 2.227 4.323 2.898s3.354 1.014 5.106 1.009c1.752 0.005 3.487-0.338 5.105-1.008s3.087-1.655 4.322-2.897c1.654-1.659 2.841-3.724 3.444-5.988 0.060-0.226 0.059-0.463-0.002-0.689s-0.18-0.431-0.345-0.596-0.371-0.284-0.596-0.345c-0.226-0.061-0.463-0.061-0.689-0.001zM23.96 23.128c-0.988 0.993-2.163 1.781-3.458 2.317s-2.682 0.81-4.084 0.807c-1.402 0.003-2.79-0.271-4.085-0.807s-2.471-1.324-3.459-2.318c-4.157-4.159-4.157-10.927 0-15.085 0.803-0.802 1.731-1.47 2.747-1.977-0.149 1.919 0.119 3.847 0.784 5.653s1.712 3.447 3.070 4.811c1.361 1.362 3.002 2.412 4.808 3.077s3.736 0.931 5.656 0.777c-0.51 1.014-1.178 1.941-1.979 2.745z"></path>
</symbol>
<symbol id="icon-calendar" viewBox="0 0 32 32">
<path stroke-linejoin="round" stroke-linecap="round" stroke-miterlimit="4" stroke-width="2.6667" d="M28 13.333h-24M28 16.667v-4.933c0-2.24 0-3.36-0.436-4.216-0.383-0.753-0.995-1.365-1.748-1.748-0.856-0.436-1.976-0.436-4.216-0.436h-11.2c-2.24 0-3.36 0-4.216 0.436-0.753 0.383-1.365 0.995-1.748 1.748-0.436 0.856-0.436 1.976-0.436 4.216v11.2c0 2.24 0 3.36 0.436 4.216 0.383 0.753 0.995 1.365 1.748 1.748 0.856 0.436 1.976 0.436 4.216 0.436h5.6M21.333 2.667v5.333M10.667 2.667v5.333M19.333 25.333l2.667 2.667 6-6"></path>
</symbol>
<symbol id="icon-user" viewBox="0 0 32 32">
<path stroke-linejoin="round" stroke-linecap="round" stroke-miterlimit="4" stroke-width="2.6667" d="M21.333 24l2.667 2.667 5.333-5.333"></path>
<path stroke-linejoin="round" stroke-linecap="round" stroke-miterlimit="4" stroke-width="2.6667" d="M16 20.667h-6c-1.861 0-2.791 0-3.548 0.23-1.705 0.517-3.038 1.851-3.555 3.556-0.23 0.757-0.23 1.687-0.23 3.548v0"></path>
<path stroke-linejoin="round" stroke-linecap="round" stroke-miterlimit="4" stroke-width="2.6667" d="M13.333 16c3.314 0 6-2.686 6-6s-2.686-6-6-6c-3.314 0-6 2.686-6 6s2.686 6 6 6z"></path>
</symbol>
<symbol id="icon-search" viewBox="0 0 32 32">
<path d="M31.008 27.231l-7.58-6.447c-0.784-0.705-1.622-1.029-2.299-0.998 1.789-2.096 2.87-4.815 2.87-7.787 0-6.627-5.373-12-12-12s-12 5.373-12 12 5.373 12 12 12c2.972 0 5.691-1.081 7.787-2.87-0.031 0.677 0.293 1.515 0.998 2.299l6.447 7.58c1.104 1.226 2.907 1.33 4.007 0.23s0.997-2.903-0.23-4.007zM12 20c-4.418 0-8-3.582-8-8s3.582-8 8-8 8 3.582 8 8-3.582 8-8 8z"></path>
</symbol>
<symbol id="icon-arrow-right" viewBox="0 0 33 32">
<path d="M21.936 14.79l1.203 0.818-22.877 0.001v0.64l22.733-0.001-1.133 0.651 0.319 0.555 2.608-1.498-2.493-1.695-0.36 0.529z"></path>
</symbol>
<symbol id="icon-arrow-left" viewBox="0 0 33 32">
<path d="M7.966 17.067l-1.203-0.818 22.877-0.001v-0.64l-22.733 0.001 1.133-0.651-0.319-0.555-2.608 1.498 2.493 1.695 0.36-0.529z"></path>
</symbol>
<symbol id="icon-burger" viewBox="0 0 24 24">
<path d="M3 12H21" stroke="#343434" stroke-width="2" stroke-linecap="round" stroke-linejoin="round"/>
<path d="M3 6H21" stroke="#343434" stroke-width="2" stroke-linecap="round" stroke-linejoin="round"/>
<path d="M3 18H21" stroke="#343434" stroke-width="2" stroke-linecap="round" stroke-linejoin="round"/>
</symbol>
<symbol id="icon-log-in" viewBox="0 0 32 32">
<path stroke-linejoin="round" stroke-linecap="round" stroke-miterlimit="4" stroke-width="2.5263" d="M19.789 4.632h1.516c2.122 0 3.183 0 3.994 0.413 0.713 0.363 1.293 0.943 1.656 1.656 0.413 0.811 0.413 1.872 0.413 3.994v10.611c0 2.122 0 3.183-0.413 3.994-0.363 0.713-0.943 1.293-1.656 1.656-0.811 0.413-1.872 0.413-3.994 0.413h-1.516M13.474 9.684l6.316 6.316M19.789 16l-6.316 6.316M19.789 16h-15.158"></path>
</symbol>
<symbol id="icon-log-in-main" viewBox="0 0 34 32">
<path stroke-linejoin="round" stroke-linecap="round" stroke-miterlimit="4" stroke-width="2.6667" d="M20.889 4h1.6c2.24 0 3.36 0 4.216 0.436 0.753 0.383 1.364 0.995 1.748 1.748 0.436 0.856 0.436 1.976 0.436 4.216v11.2c0 2.24 0 3.36-0.436 4.216-0.384 0.753-0.996 1.365-1.748 1.748-0.856 0.436-1.976 0.436-4.216 0.436h-1.6M14.222 9.333l6.667 6.667M20.889 16l-6.667 6.667M20.889 16h-16"></path>
</symbol>
<symbol id="icon-menu" viewBox="0 0 32 32">
<path stroke-linejoin="round" stroke-linecap="round" stroke-miterlimit="4" stroke-width="2.6667" d="M4 16h24"></path>
<path stroke-linejoin="round" stroke-linecap="round" stroke-miterlimit="4" stroke-width="2.6667" d="M4 8h24"></path>
<path stroke-linejoin="round" stroke-linecap="round" stroke-miterlimit="4" stroke-width="2.6667" d="M4 24h24"></path>
</symbol>
<symbol id="icon-star" viewBox="0 0 32 32">
<path d="M24.741 32c-0.38 0-0.759-0.122-1.084-0.365l-7.656-5.739-7.656 5.739c-0.317 0.239-0.698 0.366-1.089 0.365s-0.771-0.132-1.087-0.373c-0.316-0.24-0.552-0.577-0.673-0.965s-0.124-0.805-0.005-1.194l2.856-9.633-7.588-5.589c-0.314-0.243-0.548-0.582-0.668-0.971s-0.119-0.807 0.001-1.196c0.121-0.388 0.356-0.726 0.671-0.966s0.695-0.372 1.085-0.374l9.398-0.015 2.992-9.394c0.123-0.387 0.36-0.724 0.677-0.962s0.697-0.367 1.087-0.367c0.39 0 0.771 0.128 1.087 0.367s0.553 0.575 0.677 0.962l2.941 9.394 9.446 0.015c0.391 0.002 0.771 0.133 1.086 0.374s0.55 0.58 0.671 0.968c0.121 0.388 0.121 0.807 0.002 1.196s-0.353 0.728-0.668 0.97l-7.588 5.589 2.855 9.633c0.119 0.389 0.117 0.806-0.004 1.194s-0.357 0.725-0.673 0.965c-0.317 0.243-0.699 0.373-1.092 0.373z"></path>
</symbol>
<symbol id="icon-show-password" viewBox="0 0 32 32">
<path d="M16.256 6.963c5.287 0.075 9.625 4.828 11.797 8.918 0 0-0.764 1.564-1.482 2.566-0.347 0.485-0.712 0.956-1.096 1.413-0.273 0.325-0.556 0.642-0.849 0.949-2.619 2.75-6.379 4.802-10.35 4.005-4.412-0.885-8.010-4.665-10.173-8.73 0 0 0.768-1.566 1.489-2.566 0.323-0.448 0.662-0.885 1.017-1.309 0.272-0.325 0.554-0.641 0.846-0.948 2.314-2.438 5.282-4.315 8.8-4.298zM16.238 8.963c-2.945-0.011-5.394 1.633-7.332 3.675-0.264 0.277-0.518 0.563-0.764 0.857-0.324 0.386-0.633 0.784-0.927 1.193s-0.596 0.923-0.836 1.361c1.907 3.204 4.77 6.099 8.291 6.805 3.282 0.659 6.344-1.151 8.508-3.423 0.265-0.277 0.52-0.564 0.767-0.858 0.35-0.416 0.683-0.847 1-1.29 0.293-0.41 0.595-0.925 0.834-1.364-1.979-3.313-5.365-6.892-9.541-6.957z"></path>
<path d="M16.079 11.974c-2.212 0-4.008 1.796-4.008 4.008s1.796 4.008 4.008 4.008c2.212 0 4.009-1.796 4.009-4.008s-1.797-4.008-4.009-4.008zM16.079 13.979c1.107 0 2.005 0.898 2.005 2.004s-0.898 2.005-2.005 2.005c-1.106 0-2.004-0.898-2.004-2.005s0.898-2.004 2.004-2.004z"></path>
</symbol>
<symbol id="icon-hide-password" viewBox="0 0 32 32">
<path d="M6.837 5.173l-1.548 1.548 19.927 19.927 1.549-1.549-19.927-19.927z"></path>
<path d="M8.559 9.992l1.457 1.457c-1.595 1.358-2.866 3.050-3.687 4.529l-0.003 0.005c2.287 3.823 5.915 7.436 10.493 6.888 1.236-0.148 2.389-0.57 3.442-1.175l1.476 1.475c-2.053 1.318-4.407 2.016-6.958 1.671-4.599-0.622-8.36-4.394-10.73-8.824 1.113-2.239 2.636-4.382 4.508-6.027zM11.874 7.832c1.286-0.573 2.678-0.91 4.164-0.934 0.082-0 1.062 0.046 1.506 0.119 0.279 0.046 0.556 0.104 0.829 0.175 4.363 1.137 7.595 4.824 9.627 8.624-0.852 1.721-1.969 3.401-3.3 4.841l-1.413-1.413c0.983-1.060 1.803-2.24 2.435-3.384 0 0-0.635-1.021-1.116-1.662-0.309-0.412-0.635-0.812-0.977-1.197-0.27-0.304-1.319-1.336-1.568-1.552-1.674-1.44-3.639-2.569-5.997-2.55-0.913 0.014-1.791 0.194-2.624 0.498l-1.563-1.563z"></path>
<path d="M12.527 13.96l1.2 1.199c-0.079 0.239-0.121 0.493-0.121 0.758 0 1.336 1.085 2.421 2.421 2.421 0.265 0 0.52-0.043 0.758-0.122l1.2 1.2c-0.579 0.325-1.247 0.51-1.957 0.51-2.213 0-4.008-1.796-4.008-4.008 0-0.71 0.185-1.378 0.51-1.957zM15.951 11.909c0.024-0.001 0.049-0.001 0.074-0.001 2.212 0 4.008 1.796 4.008 4.008 0 0.025 0 0.050-0 0.074l-4.082-4.082z"></path>
</symbol>
<symbol id="icon-chevron-down" viewBox="0 0 32 32">
<path d="M7.232 12.080c0.688-0.72 1.664-0.768 2.512 0l6.256 6 6.24-6c0.864-0.768 1.84-0.72 2.528 0 0.704 0.704 0.656 1.92 0 2.576-0.64 0.672-7.52 7.2-7.52 7.2-0.32 0.325-0.764 0.527-1.256 0.527s-0.936-0.202-1.256-0.527l-0-0s-6.864-6.528-7.52-7.2-0.688-1.872 0-2.576z"></path>
</symbol>
<symbol id="icon-ph_user" viewBox="0 0 32 32">
<path d="M28.867 26.533c-1.933-3.333-4.867-5.667-8.267-6.8 2.653-1.598 4.4-4.463 4.4-7.736 0-4.971-4.029-9-9-9s-9 4.029-9 9c0 3.273 1.747 6.138 4.36 7.713l0.040 0.023c-3.658 1.255-6.603 3.788-8.361 7.054l-0.039 0.079c-0.014 0.062-0.022 0.134-0.022 0.208 0 0.552 0.448 1 1 1 0.385 0 0.719-0.217 0.886-0.536l0.003-0.005c2.243-3.9 6.386-6.484 11.133-6.484s8.89 2.584 11.1 6.422l0.033 0.062c0.176 0.301 0.498 0.501 0.867 0.501 0.553 0 1.001-0.448 1.001-1.001 0-0.184-0.050-0.357-0.136-0.505l0.003 0.005zM9 12c0-3.866 3.134-7 7-7s7 3.134 7 7v0c0 3.866-3.134 7-7 7s-7-3.134-7-7v0z"></path>
</symbol>
<symbol id="icon-menu_40px" viewBox="0 0 32 32">
<path d="M6.4 11.733v-2.133h19.2v2.133h-19.2zM6.4 17.067h19.2v-2.133h-19.2v2.133zM6.4 22.4h19.2v-2.133h-19.2v2.133z"></path>
</symbol>
<symbol id="icon-chevron-right" viewBox="0 0 24 24">
<path d="M9.707 18.707l6-6c0.391-0.391 0.391-1.024 0-1.414l-6-6c-0.391-0.391-1.024-0.391-1.414 0s-0.391 1.024 0 1.414l5.293 5.293-5.293 5.293c-0.391 0.391-0.391 1.024 0 1.414s1.024 0.391 1.414 0z"></path>
</symbol>
<symbol id="icon-chevron-left" viewBox="0 0 24 24">
<path d="M15.707 17.293l-5.293-5.293 5.293-5.293c0.391-0.391 0.391-1.024 0-1.414s-1.024-0.391-1.414 0l-6 6c-0.391 0.391-0.391 1.024 0 1.414l6 6c0.391 0.391 1.024 0.391 1.414 0s0.391-1.024 0-1.414z"></path>
</symbol>
<symbol id="icon-ellipse-blue" viewBox="0 0 32 32"><path fill="#72c2f8" style="fill:var(--color4, #72c2f8)" d="M32 16c0 8.837-7.163 16-16 16S0 24.837 0 16 7.163 0 16 0s16 7.163 16 16z"/></symbol>
<symbol id="icon-ellipse-blue-stroke" viewBox="0 0 32 32"><path fill="none" stroke="#72c2f8" style="stroke:var(--color4, #72c2f8)" stroke-width="2.971" d="M30.514 16c0 8.016-6.498 14.514-14.514 14.514S1.486 24.016 1.486 16C1.486 7.984 7.984 1.486 16 1.486S30.514 7.984 30.514 16z"/><path fill="#72c2f8" style="fill:var(--color4, #72c2f8)" d="M27.429 16c0 6.312-5.117 11.429-11.429 11.429S4.571 22.312 4.571 16 9.688 4.571 16 4.571 27.429 9.688 27.429 16z"/></symbol>
<symbol id="icon-ellipse-orange" viewBox="0 0 32 32"><path fill="#f3b249" style="fill:var(--color5, #f3b249)" d="M32 16c0 8.837-7.163 16-16 16S0 24.837 0 16 7.163 0 16 0s16 7.163 16 16z"/></symbol>
<symbol id="icon-ellipse-orange-stroke" viewBox="0 0 32 32"><path fill="none" stroke="#f3b249" style="stroke:var(--color5, #f3b249)" stroke-width="2.971" d="M30.514 16c0 8.016-6.498 14.514-14.514 14.514S1.486 24.016 1.486 16C1.486 7.984 7.984 1.486 16 1.486S30.514 7.984 30.514 16z"/><path fill="#f3b249" style="fill:var(--color5, #f3b249)" d="M27.429 16c0 6.312-5.117 11.429-11.429 11.429S4.571 22.312 4.571 16 9.688 4.571 16 4.571 27.429 9.688 27.429 16z"/></symbol>
<symbol id="icon-ellipse-pink" viewBox="0 0 32 32"><path fill="#ea3d65" style="fill:var(--color6, #ea3d65)" d="M32 16c0 8.837-7.163 16-16 16S0 24.837 0 16 7.163 0 16 0s16 7.163 16 16z"/></symbol>
<symbol id="icon-ellipse-pink-stroke" viewBox="0 0 32 32"><path fill="none" stroke="#ea3d65" style="stroke:var(--color6, #ea3d65)" stroke-width="2.971" d="M30.514 16c0 8.016-6.498 14.514-14.514 14.514S1.486 24.016 1.486 16C1.486 7.984 7.984 1.486 16 1.486S30.514 7.984 30.514 16z"/><path fill="#ea3d65" style="fill:var(--color6, #ea3d65)" d="M27.429 16c0 6.312-5.117 11.429-11.429 11.429S4.571 22.312 4.571 16 9.688 4.571 16 4.571 27.429 9.688 27.429 16z"/></symbol>
<symbol id="icon-google" viewBox="0 0 32 32">
<path fill="#ffc107" style="fill: var(--color1, #ffc107)" d="M29.074 13.389h-1.074v-0.055h-12v5.333h7.535c-1.099 3.105-4.053 5.333-7.535 5.333-4.418 0-8-3.582-8-8s3.582-8 8-8c2.039 0 3.895 0.769 5.307 2.026l3.771-3.771c-2.381-2.219-5.567-3.588-9.079-3.588-7.363 0-13.333 5.97-13.333 13.333s5.97 13.333 13.333 13.333 13.333-5.97 13.333-13.333c0-0.894-0.092-1.767-0.259-2.611z"></path>
<path fill="#ff3d00" style="fill: var(--color2, #ff3d00)" d="M4.204 9.794l4.381 3.213c1.185-2.935 4.056-5.007 7.415-5.007 2.039 0 3.895 0.769 5.307 2.026l3.771-3.771c-2.381-2.219-5.567-3.588-9.079-3.588-5.121 0-9.563 2.891-11.796 7.127z"></path>
<path fill="#4caf50" style="fill: var(--color3, #4caf50)" d="M16 29.333c3.444 0 6.573-1.318 8.939-3.461l-4.127-3.492c-1.339 1.014-3.003 1.62-4.813 1.62-3.468 0-6.413-2.211-7.522-5.297l-4.348 3.35c2.207 4.318 6.688 7.281 11.87 7.281z"></path>
<path fill="#1976d2" style="fill: var(--color4, #1976d2)" d="M29.074 13.389h-1.074v-0.055h-12v5.333h7.535c-0.528 1.491-1.487 2.777-2.725 3.714 0.001-0.001 0.001-0.001 0.002-0.001l4.127 3.492c-0.292 0.265 4.394-3.205 4.394-9.871 0-0.894-0.092-1.767-0.259-2.611z"></path>
</symbol>
</defs>
</svg>
